{"title":"Ninjas Creed (2009) DVDRip XviD-SKITTLES","uid":5776278,"size":738101261,"categoryP":"video","categoryS":"movies","magnet":"?xt=urn:btih:c9c3eeb2e5027771c4213f6897e50401e3ef275f&amp;dn=Ninjas+Creed+%282009%29+DVDRip+XviD-SKITTLES&amp;tr=udp%3A%2F%2Ftracker.openbittorrent.com%3A80&amp;tr=udp%3A%2F%2Fopen.demonii.com%3A1337&amp;tr=udp%3A%2F%2Ftracker.coppersurfer.tk%3A6969&amp;tr=udp%3A%2F%2Fexodus.desync.com%3A6969","seeders":0,"leechers":0,"uploader":"SkittlesRG","files":-1,"time":1282278909,"description":"[img]http://leetleech.org/images/18380203721898308941.jpg[/img]\n\n[b]Ninjas Creed (2009) DVDRip XviD-SKITTLES[/b]\n\n[img]http://leetleech.org/images/39185456263711143641.png[/img]\n\nVideo\nID                               : 0\nFormat                           : MPEG-4 Visual\nFormat profile                   : Advanced Simple@L5\nFormat settings, BVOP            : Yes\nFormat settings, QPel            : No\nFormat settings, GMC             : No warppoints\nFormat settings, Matrix          : Default (H.263)\nMuxing mode                      : Packed bitstream\nCodec ID                         : XVID\nCodec ID/Hint                    : XviD\nDuration                         : 1h 29mn\nBit rate                         : 959 Kbps\nWidth                            : 624 pixels\nHeight                           : 336 pixels\nDisplay aspect ratio             : 1.857\nFrame rate                       : 23.976 fps\nColor space                      : YUV\nChroma subsampling               : 4:2:0\nBit depth                        : 8 bits\nScan type                        : Progressive\nBits/(Pixel*Frame)               : 0.191\nStream size                      : 616 MiB (87%)\nWriting library                  : XviD 1.2.1 (UTC 2008-12-04)\n\nAudio\nID                               : 1\nFormat                           : MPEG Audio\nFormat version                   : Version 1\nFormat profile                   : Layer 3\nMode                             : Joint stereo\nCodec ID                         : 55\nCodec ID/Hint                    : MP3\nDuration                         : 1h 29mn\nBit rate mode                    : Constant\nBit rate                         : 128 Kbps\nChannel(s)                       : 2 channels\nSampling rate                    : 48.0 KHz\nStream size                      : 82.2 MiB (12%)\nAlignment                        : Split accross interleaves\nInterleave, duration             : 42 ms (1.00 video frame)\nInterleave, preload duration     : 500 ms\n &lt;a href=&quot;\nhttp://www.imdb.com/title/tt0421237/&quot; rel=&quot;nofollow&quot; target=&quot;_NEW&quot;&gt;\nhttp://www.imdb.com/title/tt0421237/&lt;/a&gt;\n\n[img]http://leetleech.org/images/46941880339015444838.png[/img]\n\nPat Morita\t... \tExhibition Manager\nEric Roberts\t... \tDad\nLalaine\t\t... \tJan\nAlexander Wraith... \tAdam Arthavan\nGail Kim\t... \tAssassin\nJeannie Crist\t... \tRoyal Maid\nNicole Brown\t... \tAndrea\nDarren Kendrick\t... \tNeighbor\nJimmy Yang\t... \tCop #2\nBobby Routh\t\n\n[img]http://leetleech.org/images/70187465700988366433.png[/img]\n\nGenre:\nAction | Thriller \n\nPlot: \nWhen a female assassin is sent to the US to kill the last living \nheir to the modern day Himalayan Kingdom, royal solider is also \nsent to protect her. When he is face to face with the assassin \nhis duty to the Kingdom becomes compromised. As they battle, \nsecrets are uncovered and the line between good and evil is erased. \nOnly one mission can be completed and only one person can survive.  \n\n[img]http://leetleech.org/images/64476088802225496360.png[/img]\n\n[img]http://leetleech.org/images/72763953674918432408.png[/img]\n[img]http://leetleech.org/images/25062806198163782635.png[/img]\n[img]http://leetleech.org/images/06721844872651450595.png[/img]\n[img]http://leetleech.org/images/65932325364278786422.png[/img]\n[img]http://leetleech.org/images/45531587958006335526.png[/img]\n[img]http://leetleech.org/images/48220856555449733969.png[/img]","torrent":{"xt":"urn:btih:c9c3eeb2e5027771c4213f6897e50401e3ef275f","amp;dn":"Ninjas+Creed+%282009%29+DVDRip+XviD-SKITTLES","amp;tr":["udp%3A%2F%2Ftracker.openbittorrent.com%3A80","udp%3A%2F%2Fopen.demonii.com%3A1337","udp%3A%2F%2Ftracker.coppersurfer.tk%3A6969","udp%3A%2F%2Fexodus.desync.com%3A6969"],"infoHash":"c9c3eeb2e5027771c4213f6897e50401e3ef275f","infoHashBuffer":{"type":"Buffer","data":[201,195,238,178,229,2,119,113,196,33,63,104,151,229,4,1,227,239,39,95]},"announce":[],"urlList":[]}}